<svg width="46" height="46" fill="#fefbfb" viewBox="0 0 24 24" xmlns="http://www.w3.org/2000/svg">
  <path d="M7.08 6.12a.6.6 0 1 0-1.2 0v10.55l-1.375-1.376a.602.602 0 0 0-1.026.425.601.601 0 0 0 .176.424l2.4 2.4.009.008a.596.596 0 0 0 .84-.008l2.4-2.4a.6.6 0 1 0-.849-.85L7.08 16.672V6.12Zm4.8.6a.6.6 0 1 1 0-1.2h1.2a.6.6 0 0 1 0 1.2h-1.2Zm0 3.6a.6.6 0 1 1 0-1.2h3.6a.6.6 0 0 1 0 1.2h-3.6Zm0 3.6a.6.6 0 1 1 0-1.2h6a.6.6 0 1 1 0 1.2h-6Zm-.6 3a.6.6 0 0 0 .6.6h8.4a.6.6 0 1 0 0-1.2h-8.4a.6.6 0 0 0-.6.6Z"></path>
</svg>