<svg width="46" height="46" fill="#ffffff" viewBox="0 0 24 24" xmlns="http://www.w3.org/2000/svg">
  <path fill-rule="evenodd" d="M12.77 11.822C11.942 12.457 11 13.179 11 15h2c0-1.095.711-1.717 1.44-2.354C15.21 11.973 16 11.283 16 10c0-2.21-1.79-4-4-4s-4 1.79-4 4h2c0-1.1.9-2 2-2s2 .9 2 2c0 .88-.58 1.324-1.23 1.822ZM13 18.5v-2h-2v2h2Z" clip-rule="evenodd"></path>
  <path fill-rule="evenodd" d="M12 22c5.523 0 10-4.477 10-10S17.523 2 12 2 2 6.477 2 12s4.477 10 10 10Zm0-2a8 8 0 1 0 0-16 8 8 0 0 0 0 16Z" clip-rule="evenodd"></path>
</svg>